<svg xmlns="http://www.w3.org/2000/svg" viewBox="0 0 497.9 500.25"><defs><style>.a{fill:#7ed026;}</style></defs><title>icon</title><path class="a" d="M356.5,72.79c11.37-11.05,6.82-33.79-10.07-50.36C329.86,5.54,307.11,1,295.74,12L190.48,117.3l60.75,60.75Z" transform="translate(-6.51 -6.01)"/><path class="a" d="M126.15,93.9,96.59,130.29C74.17,153,61.18,220,61.18,256.67V382.73L20.89,423a48.71,48.71,0,0,0,68.88,68.88l40.28-40.29H256.11c38.66,0,101-14.62,124.1-37.68l38.66-27.29Zm.33,116.35-7.64-22.93L95.9,179.67l19.78-14,1.25-22.3,17.2,13.38,22.94-7.64L149.42,172l13.38,17.21-22.27,1.27Zm65.6,31.81-14,19.75-7.64-22.94-22.94-7.64,19.78-14,1.24-22.3,17.21,13.38,22.93-7.64L201,223.58l13.38,17.21Zm37.52,71.31L222,290.43,199,282.79l19.77-14,1.25-22.3,17.21,13.38,22.93-7.65-7.64,22.94,13.38,17.2-22.28,1.28Zm51.56,51.56L273.51,342l-22.94-7.65,19.78-14L271.6,298l17.2,13.38,22.94-7.65-7.65,22.94,13.38,17.2-22.27,1.28Zm51.56,51.56-7.65-22.94-22.94-7.65,19.78-14,1.25-22.3L340.36,363l22.94-7.65-7.65,22.94L369,395.46l-22.27,1.27Z" transform="translate(-6.51 -6.01)"/><path class="a" d="M498.15,214.44c11.37-11.05,6.82-33.79-10.08-50.36-16.56-16.89-39.31-21.44-50.35-10.07L332.45,259.27,392.88,320Z" transform="translate(-6.51 -6.01)"/></svg>